<svg xmlns="http://www.w3.org/2000/svg" style="display: none;"><symbol id="facebook" viewBox="0 0 96.124 96.123"><title>facebook-logo</title><path d="M72.089,0.02L59.624,0C45.62,0,36.57,9.285,36.57,23.656v10.907H24.037c-1.083,0-1.96,0.878-1.96,1.961v15.803 c0,1.083,0.878,1.96,1.96,1.96h12.533v39.876c0,1.083,0.877,1.96,1.96,1.96h16.352c1.083,0,1.96-0.878,1.96-1.96V54.287h14.654 c1.083,0,1.96-0.877,1.96-1.96l0.006-15.803c0-0.52-0.207-1.018-0.574-1.386c-0.367-0.368-0.867-0.575-1.387-0.575H56.842v-9.246 c0-4.444,1.059-6.7,6.848-6.7l8.397-0.003c1.082,0,1.959-0.878,1.959-1.96V1.98C74.046,0.899,73.17,0.022,72.089,0.02z"/></symbol><symbol id="dribbble" viewBox="0 0 438.533 438.533"><title>dribbble-logo</title><path d="M409.133,109.203c-19.608-33.592-46.205-60.189-79.798-79.796C295.736,9.801,259.058,0,219.273,0 c-39.781,0-76.47,9.801-110.063,29.407c-33.595,19.604-60.192,46.201-79.8,79.796C9.801,142.8,0,179.489,0,219.267 c0,39.78,9.804,76.463,29.407,110.062c19.607,33.592,46.204,60.189,79.799,79.798c33.597,19.605,70.283,29.407,110.063,29.407 s76.47-9.802,110.065-29.407c33.593-19.602,60.189-46.206,79.795-79.798c19.603-33.596,29.403-70.284,29.403-110.062 C438.533,179.485,428.732,142.795,409.133,109.203z M219.27,31.977c47.201,0,88.41,15.607,123.621,46.82l-3.569,4.993 c-1.427,2.002-4.996,5.852-10.704,11.565c-5.709,5.708-11.943,11.136-18.699,16.274c-6.762,5.14-15.94,10.992-27.555,17.559 c-11.611,6.567-23.982,12.328-37.117,17.276c-21.887-40.355-45.296-76.709-70.231-109.064 C190.055,33.784,204.805,31.977,219.27,31.977z M72.524,103.06c18.271-23.026,40.537-40.73,66.806-53.1 c23.601,31.405,46.82,67.381,69.662,107.921c-57.862,15.227-115.532,22.841-173.014,22.838 C42.072,151.98,54.253,126.091,72.524,103.06z M44.54,286.794c-8.376-21.412-12.563-43.923-12.563-67.527 c0-2.666,0.098-4.665,0.286-5.996c68.905,0,132.955-8.848,192.149-26.553c6.092,11.8,11.136,22.364,15.133,31.693 c-0.771,0.38-1.999,0.806-3.713,1.283c-1.719,0.476-2.953,0.806-3.721,0.999l-10.561,3.711 c-7.236,2.666-16.708,7.235-28.409,13.703c-11.704,6.478-24.123,14.182-37.257,23.13c-13.134,8.949-26.696,20.797-40.684,35.553 c-13.99,14.75-25.743,30.591-35.26,47.53C64.713,327.381,52.914,308.2,44.54,286.794z M219.27,406.56 c-44.54,0-84.32-14.277-119.343-42.825l4.283,3.142c6.661-14.66,16.462-28.746,29.408-42.257 c12.944-13.511,25.41-24.413,37.401-32.695c11.991-8.274,25.028-16.077,39.115-23.414c14.084-7.323,23.691-11.991,28.835-13.983 c5.14-1.998,9.233-3.572,12.278-4.716l0.568-0.287h0.575c18.647,48.916,31.977,96.313,39.968,142.184 C268.756,401.611,244.397,406.557,219.27,406.56z M376.876,320.479c-14.086,21.796-31.696,39.834-52.817,54.104 c-7.81-43.776-19.985-88.415-36.549-133.902c37.877-5.907,76.8-3.142,116.771,8.274 C400.092,274.841,390.955,298.687,376.876,320.479z M403.706,216.698c-1.903-0.378-4.285-0.81-7.139-1.283 c-2.854-0.473-6.331-1.047-10.424-1.713c-4.087-0.666-8.662-1.283-13.702-1.855c-5.045-0.571-10.421-1.093-16.136-1.569 c-5.708-0.478-11.8-0.855-18.268-1.143c-6.479-0.284-13.042-0.428-19.705-0.428c-6.656,0-13.657,0.193-20.981,0.571 c-7.326,0.375-14.414,1.049-21.265,1.999c-0.575-0.953-1.287-2.524-2.143-4.714c-0.855-2.187-1.479-3.855-1.848-4.997 c-3.621-7.994-7.81-17.036-12.573-27.121c13.134-5.333,25.652-11.469,37.555-18.418c11.892-6.949,21.402-13.131,28.544-18.555 c7.139-5.43,13.895-11.188,20.27-17.277c6.379-6.09,10.513-10.323,12.423-12.703c1.906-2.384,3.713-4.714,5.424-6.995l0.287-0.288 c27.788,33.88,41.974,72.897,42.538,117.059L403.706,216.698z"/></symbol><symbol id="envelope" viewBox="0 0 382.117 382.117"><title>message-closed-envelope</title><path d="M336.764,45.945H45.354C20.346,45.945,0,65.484,0,89.5v203.117c0,24.016,20.346,43.555,45.354,43.555h291.41 c25.008,0,45.353-19.539,45.353-43.555V89.5C382.117,65.484,361.772,45.945,336.764,45.945z M336.764,297.72H45.354 c-3.676,0-6.9-2.384-6.9-5.103V116.359l131.797,111.27c2.702,2.282,6.138,3.538,9.676,3.538l22.259,0.001 c3.536,0,6.974-1.257,9.677-3.539l131.803-111.274v176.264C343.664,295.336,340.439,297.72,336.764,297.72z M191.059,192.987 L62.87,84.397h256.378L191.059,192.987z"/></symbol><symbol id="right-arrow" viewBox="0 0 492.004 492.004"><title>right-arrow</title><path d="M484.14,226.886L306.46,49.202c-5.072-5.072-11.832-7.856-19.04-7.856c-7.216,0-13.972,2.788-19.044,7.856l-16.132,16.136 c-5.068,5.064-7.86,11.828-7.86,19.04c0,7.208,2.792,14.2,7.86,19.264L355.9,207.526H26.58C11.732,207.526,0,219.15,0,234.002 v22.812c0,14.852,11.732,27.648,26.58,27.648h330.496L252.248,388.926c-5.068,5.072-7.86,11.652-7.86,18.864 c0,7.204,2.792,13.88,7.86,18.948l16.132,16.084c5.072,5.072,11.828,7.836,19.044,7.836c7.208,0,13.968-2.8,19.04-7.872 l177.68-177.68c5.084-5.088,7.88-11.88,7.86-19.1C492.02,238.762,489.228,231.966,484.14,226.886z"/></symbol><symbol id="twitter" viewBox="0 0 612 612"><title>twitter-logo-silhouette</title><path d="M612,116.258c-22.525,9.981-46.694,16.75-72.088,19.772c25.929-15.527,45.777-40.155,55.184-69.411 c-24.322,14.379-51.169,24.82-79.775,30.48c-22.907-24.437-55.49-39.658-91.63-39.658c-69.334,0-125.551,56.217-125.551,125.513 c0,9.828,1.109,19.427,3.251,28.606C197.065,206.32,104.556,156.337,42.641,80.386c-10.823,18.51-16.98,40.078-16.98,63.101 c0,43.559,22.181,81.993,55.835,104.479c-20.575-0.688-39.926-6.348-56.867-15.756v1.568c0,60.806,43.291,111.554,100.693,123.104 c-10.517,2.83-21.607,4.398-33.08,4.398c-8.107,0-15.947-0.803-23.634-2.333c15.985,49.907,62.336,86.199,117.253,87.194 c-42.947,33.654-97.099,53.655-155.916,53.655c-10.134,0-20.116-0.612-29.944-1.721c55.567,35.681,121.536,56.485,192.438,56.485 c230.948,0,357.188-191.291,357.188-357.188l-0.421-16.253C573.872,163.526,595.211,141.422,612,116.258z"/></symbol><symbol id="star" viewBox="0 0 426.667 426.667"><title>star</title><polygon style="fill:#FAC917;" points="213.333,10.441 279.249,144.017 426.667,165.436 320,269.41 345.173,416.226 213.333,346.91 81.485,416.226 106.667,269.41 0,165.436 147.409,144.017 "/></symbol><symbol id="left-angle-arrow" viewBox="0 0 98.148 98.148"><title>left-angle-arrow</title><path d="M64.691,0.587L17.617,47.659c-0.75,0.75-0.75,2.078,0,2.828l47.076,47.076c0.375,0.375,0.883,0.586,1.414,0.586 c0.529,0,1.039-0.211,1.414-0.586l12.986-12.987c0.391-0.391,0.586-0.901,0.586-1.414c0-0.512-0.195-1.022-0.586-1.414 L47.834,49.073l32.672-32.674c0.752-0.75,0.75-2.078,0-2.828L67.52,0.587C66.738-0.195,65.473-0.195,64.691,0.587z"/></symbol><symbol id="right-angle-arrow" viewBox="0 0 98.148 98.148"><title>arrow-angle-pointing-to-right</title><path d="M33.458,97.562L80.531,50.49c0.75-0.75,0.75-2.078,0-2.828L33.456,0.586C33.081,0.211,32.572,0,32.042,0 c-0.53,0-1.039,0.211-1.414,0.586L17.641,13.573c-0.391,0.391-0.586,0.902-0.586,1.414c0,0.512,0.195,1.023,0.586,1.414 l32.674,32.674L17.642,81.75c-0.751,0.75-0.75,2.078,0,2.828l12.987,12.984C31.411,98.344,32.677,98.344,33.458,97.562z"/></symbol><symbol id="pinterest" viewBox="0 0 100.001 100.001"><title>pinterest-logo</title><path d="M43.081,66.14c-2.626,13.767-5.833,26.966-15.333,33.861c-2.932-20.809,4.307-36.436,7.668-53.027 c-5.73-9.646,0.689-29.062,12.777-24.277c14.873,5.885-12.881,35.865,5.75,39.611c19.453,3.908,27.395-33.752,15.332-46 C51.847-1.376,18.542,15.905,22.638,41.224c0.996,6.191,7.391,8.068,2.555,16.611c-11.154-2.473-14.484-11.27-14.055-23 c0.69-19.197,17.25-32.639,33.86-34.498c21.006-2.352,40.721,7.711,43.443,27.471c3.066,22.303-9.48,46.459-31.943,44.721 C50.41,72.056,47.853,69.04,43.081,66.14z"/></symbol></svg>