<?xml version="1.0" encoding="iso-8859-1"?>
<!-- Generator: Adobe Illustrator 19.0.0, SVG Export Plug-In . SVG Version: 6.00 Build 0)  -->
<svg version="1.1" id="Capa_1" xmlns="http://www.w3.org/2000/svg" xmlns:xlink="http://www.w3.org/1999/xlink" x="0px" y="0px"
	 viewBox="0 0 360 360" style="enable-background:new 0 0 360 360;" xml:space="preserve">
<g id="XMLID_1023_">
	<polygon id="XMLID_1024_" style="fill:#CCF8F3;" points="180,240 110,240 110,200 180,200 180,160 110,160 110,120 180,120 
		180,0.002 40,140 40,360 180,360 180,359.998 	"/>
	<polygon id="XMLID_1025_" style="fill:#CCF8F3;" points="40,0 40,60 100,0 	"/>
	<polygon id="XMLID_1026_" style="fill:#00D7DF;" points="320,360 320,300 260,360 	"/>
	<polygon id="XMLID_1027_" style="fill:#00D7DF;" points="280,0 280,60 250,30 220,60 220,0 180,0 180,0.002 180,120 250,120 
		250,160 180,160 180,200 250,200 250,240 180,240 180,359.998 320,220 320,0 	"/>
	<polygon id="XMLID_1028_" style="fill:#B02768;" points="180,360 260,360 320,300 320,220 180,359.998 	"/>
	<polygon id="XMLID_1029_" style="fill:#EA348B;" points="180,0 100,0 40,60 40,140 180,0.002 	"/>
	<polygon id="XMLID_1030_" style="fill:#FFFFFF;" points="110,160 180,160 250,160 250,120 180,120 110,120 	"/>
	<polygon id="XMLID_1031_" style="fill:#FFFFFF;" points="110,240 180,240 250,240 250,200 180,200 110,200 	"/>
	<polygon id="XMLID_1032_" style="fill:#B02768;" points="250,30 280,60 280,0 220,0 220,60 	"/>
</g>
<g>
</g>
<g>
</g>
<g>
</g>
<g>
</g>
<g>
</g>
<g>
</g>
<g>
</g>
<g>
</g>
<g>
</g>
<g>
</g>
<g>
</g>
<g>
</g>
<g>
</g>
<g>
</g>
<g>
</g>
</svg>
